<svg xmlns="http://www.w3.org/2000/svg" viewBox="0 0 512 512" width="512" height="512">
<defs><radialGradient id="bgk5" cx="50%" cy="28%" r="80%"><stop offset="0" stop-color="#1f3d56"/><stop offset="1" stop-color="#060d16"/></radialGradient><filter id="glk5" x="-20%" y="-20%" width="140%" height="140%"><feGaussianBlur stdDeviation="10" result="b"/><feFlood flood-color="#7fb8ff" flood-opacity=".45"/><feComposite in2="b" operator="in"/><feMerge><feMergeNode/><feMergeNode in="SourceGraphic"/></feMerge></filter><mask id="mk5" maskUnits="userSpaceOnUse" x="0" y="0" width="512" height="512"><rect width="512" height="512" fill="#000"/><g fill="#fff"><path d="M 256 476 A 148 148 0 0 1 108 328 C 108 250, 150 196, 196 150 C 226 120, 236 84, 226 36 C 290 70, 318 118, 316 170 C 336 150, 346 126, 344 98 C 388 144, 404 230, 404 328 A 148 148 0 0 1 256 476 Z"/></g><g fill="#000"><circle cx="256" cy="322" r="112"/></g><g fill="#fff"></g></mask></defs>
<rect width="512" height="512" rx="114" fill="url(#bgk5)"/>
<g transform="translate(256 262) scale(0.78) translate(-256 -256)" filter="url(#glk5)"><rect width="512" height="512" fill="#fff" mask="url(#mk5)"/><g fill="#fff"><rect x="253.66" y="305" width="4.68" height="26" rx="2.34"/><rect x="243" y="315.66" width="26" height="4.68" rx="2.34"/><rect x="204.38" y="335" width="3.2399999999999998" height="18" rx="1.6199999999999999"/><rect x="197" y="342.38" width="18" height="3.2399999999999998" rx="1.6199999999999999"/><rect x="304.38" y="335" width="3.2399999999999998" height="18" rx="1.6199999999999999"/><rect x="297" y="342.38" width="18" height="3.2399999999999998" rx="1.6199999999999999"/><rect x="254.56" y="372" width="2.88" height="16" rx="1.44"/><rect x="248" y="378.56" width="16" height="2.88" rx="1.44"/><rect x="294.74" y="275" width="2.52" height="14" rx="1.26"/><rect x="289" y="280.74" width="14" height="2.52" rx="1.26"/><rect x="214.74" y="275" width="2.52" height="14" rx="1.26"/><rect x="209" y="280.74" width="14" height="2.52" rx="1.26"/></g></g>
</svg>