<svg xmlns="http://www.w3.org/2000/svg" viewBox="0 0 512 512" width="512" height="512">
<defs><mask id="mk6" maskUnits="userSpaceOnUse" x="0" y="0" width="512" height="512"><rect width="512" height="512" fill="#000"/><g fill="#fff"><circle cx="256" cy="292" r="176"/></g><g fill="#000"><circle cx="256" cy="268" r="172"/></g><g fill="#fff"><path d="M 256 476 A 148 148 0 0 1 108 328 C 108 250, 150 196, 196 150 C 226 120, 236 84, 226 36 C 290 70, 318 118, 316 170 C 336 150, 346 126, 344 98 C 388 144, 404 230, 404 328 A 148 148 0 0 1 256 476 Z" transform="translate(256 412) scale(0.64) translate(-256 -476)"/></g></mask></defs>

<g transform=""><rect width="512" height="512" fill="#fff" mask="url(#mk6)"/><g fill="#fff"><rect x="116.02" y="185" width="3.96" height="22" rx="1.98"/><rect x="107" y="194.02" width="22" height="3.96" rx="1.98"/><rect x="396.38" y="167" width="3.2399999999999998" height="18" rx="1.6199999999999999"/><rect x="389" y="174.38" width="18" height="3.2399999999999998" rx="1.6199999999999999"/><rect x="150.92" y="116" width="2.16" height="12" rx="1.08"/><rect x="146" y="120.92" width="12" height="2.16" rx="1.08"/><rect x="362.92" y="98" width="2.16" height="12" rx="1.08"/><rect x="358" y="102.92" width="12" height="2.16" rx="1.08"/></g></g>
</svg>